<?xml version="1.0" standalone="no"?>
<!DOCTYPE svg PUBLIC "-//W3C//DTD SVG 20010904//EN"
 "http://www.w3.org/TR/2001/REC-SVG-20010904/DTD/svg10.dtd">
<svg version="1.0" xmlns="http://www.w3.org/2000/svg"
 width="1024.000000pt" height="1024.000000pt" viewBox="0 0 1024.000000 1024.000000"
 preserveAspectRatio="xMidYMid meet">

<g transform="translate(0.000000,1024.000000) scale(0.100000,-0.100000)"
fill="#000000" stroke="none">
<path d="M5581 7769 c-193 -23 -341 -67 -501 -151 -138 -72 -190 -110 -320
-234 -168 -162 -269 -315 -348 -534 -59 -161 -102 -377 -102 -516 0 -67 -2
-73 -27 -90 -16 -10 -82 -65 -148 -122 -186 -161 -227 -196 -265 -222 -19 -13
-75 -58 -125 -100 -87 -74 -213 -176 -285 -232 -19 -15 -71 -57 -115 -93 -145
-119 -189 -151 -293 -214 -140 -84 -140 -84 -215 -61 -52 16 -73 30 -115 73
-81 86 -121 181 -187 446 -14 57 -35 120 -45 141 -44 87 -149 143 -267 144
-107 0 -170 -62 -188 -185 -9 -58 17 -240 50 -353 33 -112 95 -252 155 -345
51 -79 160 -193 218 -226 34 -20 39 -34 21 -52 -22 -22 189 -383 337 -579 421
-556 900 -895 1457 -1031 l157 -38 0 -257 0 -256 -177 -1 c-217 -2 -243 -6
-302 -45 -88 -59 -124 -179 -82 -271 38 -83 114 -134 216 -144 33 -3 614 -4
1290 -1 l1230 5 47 27 c171 101 160 317 -22 402 -43 20 -63 21 -472 24 l-428
3 0 344 c0 190 4 345 8 345 18 0 278 143 341 187 240 169 455 383 592 589 142
212 202 338 280 584 87 278 101 435 97 1086 l-3 471 130 6 c189 7 284 45 421
170 35 32 70 57 76 54 23 -8 65 22 83 59 15 31 16 43 5 76 -20 68 -63 102
-240 192 -91 46 -201 102 -245 125 -97 50 -168 63 -288 53 l-89 -8 -26 46
c-48 81 -171 240 -253 325 -203 211 -485 346 -804 384 -101 12 -128 12 -234 0z
m261 -479 c76 -14 126 -31 193 -65 194 -97 301 -206 392 -395 30 -63 60 -126
66 -139 7 -13 31 -40 55 -60 l42 -35 0 -682 c0 -429 -4 -712 -11 -761 -65
-478 -343 -932 -728 -1187 -213 -142 -394 -219 -641 -276 -178 -41 -276 -53
-436 -52 -211 1 -398 36 -586 112 -333 135 -606 326 -812 570 -133 157 -277
353 -276 377 0 4 25 26 56 48 31 22 65 48 76 59 12 11 23 14 27 8 52 -85 157
-177 261 -231 326 -170 742 -171 1108 -5 218 99 424 301 531 519 68 139 82
176 107 284 48 210 42 406 -17 528 -34 72 -71 104 -146 128 -107 35 -209 -22
-247 -137 -11 -35 -21 -111 -27 -223 -10 -191 -30 -280 -85 -388 -47 -94 -92
-147 -175 -202 -160 -107 -375 -157 -584 -135 -122 13 -227 40 -320 84 -59 28
-67 35 -50 42 11 4 56 37 100 73 121 98 384 314 519 426 244 204 227 192 267
187 97 -11 196 60 239 173 20 51 25 93 36 292 7 128 18 258 24 288 17 83 76
242 105 286 14 21 25 41 25 45 0 15 103 144 147 185 141 130 308 226 444 252
160 32 189 33 321 7z m-572 -4345 l0 -265 -210 0 -210 0 0 235 0 235 49 0 c49
0 341 46 350 55 17 18 21 -25 21 -260z"/>
<path d="M5950 6981 c-87 -28 -162 -104 -186 -189 -42 -145 38 -300 177 -345
67 -22 97 -21 162 3 229 86 267 405 61 506 -62 30 -162 42 -214 25z"/>
<path d="M27 103 c-25 -4 -27 -8 -27 -54 0 -48 1 -49 30 -49 30 0 30 1 30 55
0 30 -1 54 -2 54 -2 -1 -15 -4 -31 -6z"/>
</g>
</svg>
