<?xml version="1.0" standalone="no"?>
<!DOCTYPE svg PUBLIC "-//W3C//DTD SVG 20010904//EN"
 "http://www.w3.org/TR/2001/REC-SVG-20010904/DTD/svg10.dtd">
<svg version="1.0" xmlns="http://www.w3.org/2000/svg"
 width="500.000000pt" height="500.000000pt" viewBox="0 0 500.000000 500.000000"
 preserveAspectRatio="xMidYMid meet">

<g transform="translate(0.000000,500.000000) scale(0.100000,-0.100000)"
fill="#000000" stroke="none">
<path d="M1104 4201 c-78 -26 -134 -63 -212 -140 -91 -88 -144 -190 -161 -308
-27 -194 -63 -2064 -41 -2198 23 -145 162 -574 220 -683 64 -119 191 -245 304
-300 178 -86 241 -91 1251 -92 761 0 1032 9 1145 37 173 42 299 116 395 230
109 132 152 232 252 588 l58 210 3 490 c3 497 -19 1419 -39 1625 -12 132 -22
168 -67 253 -64 124 -210 247 -340 287 -120 37 -183 26 -387 -71 -60 -28 -126
-57 -145 -64 -19 -8 -93 -40 -163 -73 l-128 -59 -97 21 c-88 18 -133 20 -477
21 -337 0 -390 -2 -471 -19 l-92 -19 -118 55 c-457 214 -494 228 -583 227 -31
0 -79 -8 -107 -18z m287 -306 c68 -31 207 -98 308 -148 l184 -90 56 12 c180
39 228 43 586 38 308 -4 361 -7 440 -25 50 -12 102 -21 117 -22 15 0 117 44
227 98 350 171 410 196 466 196 116 -1 221 -110 254 -262 10 -49 22 -241 35
-582 l5 -135 -21 35 c-97 160 -223 318 -314 397 -31 26 -83 72 -116 101 -71
61 -98 71 -133 48 -46 -30 -29 -70 53 -122 73 -47 286 -255 320 -314 14 -25
40 -66 58 -92 32 -48 41 -66 113 -224 l41 -92 -3 -583 -3 -584 -26 -70 c-15
-38 -45 -126 -66 -195 -84 -266 -161 -393 -281 -464 -128 -75 -52 -70 -1156
-73 -710 -3 -1009 -1 -1058 8 -158 26 -295 136 -351 280 -31 80 -172 484 -187
536 -6 19 -8 269 -7 600 l3 568 43 105 c66 161 183 328 329 470 65 63 135 128
156 143 64 48 59 107 -9 107 -28 0 -50 -16 -153 -110 -158 -145 -251 -259
-334 -410 -33 -59 -36 -62 -32 -30 2 19 9 170 16 335 14 382 29 454 114 540
93 92 146 94 326 10z"/>
<path d="M1680 2554 c-93 -25 -202 -97 -241 -160 -36 -58 -9 -133 58 -161 35
-14 38 -14 130 33 145 73 227 71 353 -8 69 -43 113 -43 151 0 51 57 35 118
-48 192 -117 103 -265 141 -403 104z"/>
<path d="M3059 2551 c-84 -27 -155 -69 -204 -122 -38 -40 -45 -55 -45 -88 0
-58 14 -86 53 -104 31 -15 39 -15 77 -2 23 8 53 23 68 34 38 26 116 51 163 51
45 0 94 -18 159 -60 25 -16 57 -32 71 -35 61 -15 128 61 115 130 -12 64 -131
163 -234 195 -78 24 -149 25 -223 1z"/>
<path d="M2325 2201 c-34 -15 -57 -49 -62 -93 -7 -61 16 -111 66 -143 39 -24
41 -28 41 -74 0 -27 3 -61 6 -77 4 -21 -1 -39 -18 -64 -31 -46 -68 -52 -92
-15 -38 57 -128 67 -166 17 -25 -31 -26 -100 -4 -149 20 -40 91 -103 137 -120
73 -27 152 -12 215 41 l32 28 33 -28 c93 -78 201 -70 289 22 70 73 86 151 42
203 -22 26 -33 31 -71 31 -38 0 -50 -5 -81 -36 -66 -66 -112 -18 -112 116 0
78 0 79 33 99 55 34 79 66 84 114 7 56 -15 99 -61 121 -45 21 -84 20 -124 -4
l-33 -20 -39 20 c-41 21 -81 25 -115 11z"/>
<path d="M1178 2023 c-15 -2 -39 -18 -53 -34 -43 -52 -28 -160 26 -190 30 -15
352 -23 394 -9 50 17 77 52 83 110 4 47 3 52 -31 84 -19 18 -50 36 -67 40 -34
6 -306 6 -352 -1z"/>
<path d="M3437 2021 c-76 -16 -114 -90 -83 -164 27 -66 46 -71 256 -72 216 0
230 4 257 73 15 39 15 49 2 85 -24 71 -56 82 -239 84 -85 1 -172 -2 -193 -6z"/>
<path d="M3696 1594 c-165 -189 -244 -251 -428 -339 -128 -61 -247 -98 -393
-122 -152 -25 -574 -22 -755 5 -205 31 -388 97 -545 195 -56 35 -215 164 -215
175 0 4 -24 33 -54 65 -51 55 -55 57 -102 57 -77 -1 -124 -50 -124 -131 0 -40
7 -56 47 -110 129 -176 353 -343 568 -424 106 -40 318 -92 435 -106 141 -18
635 -18 753 -1 190 28 447 108 555 173 142 86 217 144 310 239 134 137 165
183 159 233 -7 50 -51 113 -89 126 -58 20 -79 14 -122 -35z"/>
</g>
</svg>
