<?xml version="1.0" standalone="no"?>
<!DOCTYPE svg PUBLIC "-//W3C//DTD SVG 20010904//EN"
 "http://www.w3.org/TR/2001/REC-SVG-20010904/DTD/svg10.dtd">
<svg version="1.0" xmlns="http://www.w3.org/2000/svg"
 width="1024.000000pt" height="1024.000000pt" viewBox="0 0 1024.000000 1024.000000"
 preserveAspectRatio="xMidYMid meet">

<g transform="translate(0.000000,1024.000000) scale(0.100000,-0.100000)"
fill="#000000" stroke="none">
<path d="M2990 8323 c-89 -14 -207 -50 -252 -77 -126 -75 -156 -217 -60 -285
42 -29 99 -27 181 8 162 69 370 81 612 36 170 -32 210 -43 337 -94 175 -70
256 -116 338 -191 62 -56 84 -70 109 -70 32 0 144 54 200 96 55 41 233 105
380 135 143 30 384 37 535 15 171 -25 332 -70 430 -120 47 -24 126 -64 175
-90 50 -25 100 -46 111 -46 12 0 44 16 70 35 212 153 350 227 518 275 185 54
283 70 446 77 169 6 234 -5 370 -62 118 -50 192 -24 220 76 14 48 -6 93 -63
146 -105 95 -217 132 -419 140 -152 6 -267 -5 -453 -43 -221 -45 -381 -105
-609 -227 l-109 -59 -127 51 c-128 52 -280 95 -445 128 -72 14 -138 18 -335
18 -227 -1 -254 -3 -370 -27 -178 -38 -291 -73 -402 -122 -53 -24 -100 -40
-105 -35 -23 22 -292 150 -384 181 -284 99 -495 139 -717 137 -86 -1 -168 -3
-182 -6z"/>
<path d="M2425 7740 c-48 -9 -109 -71 -231 -235 -283 -380 -409 -712 -421
-1107 -6 -179 5 -297 48 -508 33 -161 59 -326 59 -381 0 -27 -15 -58 -64 -133
-115 -174 -163 -330 -153 -500 22 -391 385 -638 800 -546 84 18 245 80 315
120 l32 19 0 -23 c0 -12 -14 -90 -30 -172 -123 -603 -128 -817 -27 -1061 43
-106 118 -222 197 -306 75 -80 242 -213 299 -238 17 -8 31 -17 31 -20 0 -14
-46 -143 -86 -243 -49 -121 -50 -126 -29 -126 8 0 84 -36 168 -79 137 -71 306
-148 364 -165 20 -6 22 -3 28 51 4 32 15 115 26 185 10 70 19 142 19 161 0 30
3 34 23 31 12 -2 81 -12 152 -24 252 -39 419 -53 656 -56 185 -2 243 -5 265
-17 40 -20 154 -44 250 -52 97 -8 208 7 308 41 67 24 85 25 326 28 198 3 286
8 393 24 137 21 337 58 368 67 14 5 17 -8 23 -81 10 -117 41 -306 56 -333 9
-18 17 -21 43 -16 51 9 517 245 517 261 0 8 -31 83 -69 167 -82 181 -86 193
-67 200 48 19 263 186 331 259 181 192 276 442 262 690 -7 118 -54 420 -91
586 -13 59 -29 141 -35 182 -7 41 -14 85 -17 98 -4 21 -2 20 29 -10 43 -43
149 -99 257 -134 76 -25 100 -28 220 -28 122 0 143 2 215 28 155 54 263 131
334 240 68 105 93 186 99 326 7 176 -24 272 -146 459 -62 93 -62 93 -56 150 7
59 34 205 82 436 45 216 57 389 37 557 -46 400 -208 741 -527 1115 -87 102
-141 134 -195 116 -40 -14 -73 -67 -73 -118 0 -57 17 -95 90 -195 34 -47 78
-112 97 -145 20 -33 42 -67 49 -75 26 -32 127 -240 164 -340 76 -205 100 -337
100 -556 0 -142 -9 -212 -65 -489 -31 -156 -49 -338 -41 -408 5 -41 21 -79 62
-148 99 -169 117 -214 122 -309 5 -99 -13 -154 -69 -208 -139 -136 -348 -149
-574 -37 -104 52 -262 165 -274 198 -5 12 -24 101 -41 197 -18 96 -65 344
-106 550 -40 206 -78 402 -83 435 -16 99 -121 669 -126 685 -13 44 -95 495
-100 555 -9 94 -20 126 -56 161 -27 26 -37 29 -99 29 -59 0 -72 -3 -94 -24
-32 -30 -46 -77 -46 -153 0 -56 66 -471 95 -596 9 -36 24 -122 35 -191 22
-138 61 -349 115 -621 19 -96 42 -222 51 -280 8 -58 24 -141 34 -186 11 -44
31 -149 45 -231 14 -83 34 -193 44 -245 11 -51 24 -129 30 -173 6 -44 27 -161
46 -260 83 -437 98 -519 130 -709 48 -285 50 -316 26 -407 -67 -259 -254 -438
-606 -585 -197 -81 -398 -124 -585 -124 -115 0 -214 21 -305 65 -82 40 -134
55 -186 55 -47 0 -50 -2 -88 -54 -130 -175 -445 -227 -654 -107 -57 33 -173
144 -164 158 3 4 -34 5 -81 2 -75 -5 -99 -12 -173 -48 -71 -35 -104 -44 -203
-58 -102 -15 -135 -15 -243 -4 -201 20 -417 80 -586 164 -185 92 -297 194
-379 347 -100 183 -102 286 -19 710 91 464 253 1272 305 1520 30 146 74 362
96 480 23 118 66 341 96 495 125 637 153 862 122 980 -17 64 -56 88 -136 82
-98 -7 -132 -52 -143 -192 -6 -82 -30 -218 -94 -540 -14 -66 -36 -186 -50
-268 -27 -159 -85 -466 -110 -587 -8 -41 -40 -199 -70 -350 -30 -151 -70 -345
-89 -430 -19 -85 -37 -173 -39 -195 -4 -39 -9 -44 -133 -134 -193 -140 -316
-191 -466 -191 -161 0 -282 70 -351 202 -31 61 13 226 99 364 114 185 131 264
95 459 -11 61 -35 196 -54 300 -44 238 -52 337 -38 494 13 142 36 245 87 381
67 180 136 306 325 587 36 54 71 114 78 134 16 50 4 116 -28 150 -31 33 -53
39 -106 29z"/>
<path d="M3998 5836 c-106 -31 -198 -107 -246 -203 -73 -146 -75 -306 -4 -458
82 -175 308 -285 474 -230 71 23 159 87 207 149 53 69 57 80 76 175 15 70 15
95 5 164 -40 277 -283 469 -512 403z m132 -131 c67 -35 88 -101 50 -162 -25
-42 -68 -63 -126 -63 -39 0 -51 5 -80 34 -29 29 -34 41 -34 81 0 57 12 80 53
105 38 24 97 26 137 5z"/>
<path d="M6109 5840 c-77 -10 -144 -44 -204 -105 -61 -60 -98 -125 -124 -214
-27 -93 -31 -136 -22 -219 10 -81 49 -171 102 -235 48 -58 140 -116 214 -134
274 -68 557 224 507 524 -28 165 -159 321 -308 367 -69 20 -101 24 -165 16z
m141 -159 c59 -43 64 -114 11 -173 -23 -26 -37 -32 -82 -36 -48 -4 -59 -1 -87
23 -54 45 -61 115 -18 164 46 52 121 61 176 22z"/>
<path d="M4967 4880 c-259 -47 -441 -182 -506 -377 -38 -112 -23 -218 42 -317
150 -225 456 -334 797 -281 159 24 230 50 345 127 195 131 256 342 156 540
-74 145 -206 246 -386 294 -70 19 -371 28 -448 14z m294 -137 c17 -10 38 -30
46 -44 15 -25 15 -30 -4 -65 -37 -73 -159 -104 -276 -70 -58 17 -107 61 -107
95 0 25 36 68 73 88 67 34 208 32 268 -4z"/>
<path d="M2723 4855 c0 -8 4 -12 9 -9 5 3 6 10 3 15 -9 13 -12 11 -12 -6z"/>
<path d="M3851 3834 c-77 -54 -64 -221 29 -380 50 -86 218 -248 318 -308 118
-70 244 -115 378 -133 102 -15 120 -15 191 -1 89 18 174 53 221 93 19 15 37
23 44 19 7 -4 10 -4 6 1 -5 5 40 77 79 124 1 2 14 -2 28 -9 19 -10 22 -16 13
-22 -9 -6 -6 -7 8 -4 21 6 24 4 103 -78 44 -46 133 -95 206 -115 62 -16 212
-15 297 3 127 27 262 80 344 136 25 16 48 30 51 30 6 0 98 75 134 110 48 46
111 133 144 200 33 66 71 211 61 237 -3 7 0 13 7 13 8 0 9 2 1 8 -6 4 -14 17
-18 29 -18 58 -136 83 -201 43 -41 -25 -55 -46 -89 -136 -66 -176 -244 -324
-452 -378 -203 -52 -374 40 -489 264 -16 30 -45 95 -65 144 -57 143 -75 141
-140 -17 -94 -228 -156 -314 -266 -368 -57 -28 -75 -32 -147 -32 -97 0 -145
12 -247 61 -131 64 -256 200 -334 365 -26 55 -47 84 -69 97 -40 25 -114 26
-146 4z"/>
<path d="M2981 3634 c0 -11 3 -14 6 -6 3 7 2 16 -1 19 -3 4 -6 -2 -5 -13z"/>
<path d="M5100 3155 c0 -8 -4 -15 -10 -15 -5 0 -10 -5 -10 -11 0 -8 4 -8 14 0
11 9 15 9 19 -1 2 -7 4 -1 3 14 -1 29 -16 40 -16 13z"/>
<path d="M5200 3141 c0 -6 4 -13 10 -16 6 -3 7 1 4 9 -7 18 -14 21 -14 7z"/>
<path d="M5211 3072 c-15 -28 -14 -32 8 -32 27 0 36 19 18 37 -13 14 -16 13
-26 -5z"/>
<path d="M4828 2983 c6 -2 18 -2 25 0 6 3 1 5 -13 5 -14 0 -19 -2 -12 -5z"/>
<path d="M4768 2973 c7 -3 16 -2 19 1 4 3 -2 6 -13 5 -11 0 -14 -3 -6 -6z"/>
<path d="M5540 2866 c7 -7 13 -7 20 0 6 6 3 10 -10 10 -13 0 -16 -4 -10 -10z"/>
<path d="M5470 2791 c-8 -6 -17 -8 -20 -6 -4 2 -7 -2 -7 -10 0 -11 5 -10 24 2
13 8 23 17 23 19 0 6 -3 5 -20 -5z"/>
<path d="M4866 2733 c-6 -14 -5 -15 5 -6 7 7 10 15 7 18 -3 3 -9 -2 -12 -12z"/>
<path d="M4950 2710 c-9 -6 -10 -10 -3 -10 6 0 15 5 18 10 8 12 4 12 -15 0z"/>
<path d="M4995 2700 c7 -11 45 -20 45 -10 0 4 -11 10 -25 12 -13 3 -22 2 -20
-2z"/>
<path d="M5200 2669 c0 -5 11 -9 25 -9 14 0 25 2 25 4 0 2 -11 6 -25 8 -14 3
-25 1 -25 -3z"/>
<path d="M6515 2033 c-11 -3 -24 -9 -29 -14 -5 -4 8 -3 30 2 58 16 57 26 -1
12z"/>
<path d="M6378 1983 c7 -3 16 -2 19 1 4 3 -2 6 -13 5 -11 0 -14 -3 -6 -6z"/>
<path d="M6248 1943 c7 -3 16 -2 19 1 4 3 -2 6 -13 5 -11 0 -14 -3 -6 -6z"/>
<path d="M4188 1903 c7 -3 16 -2 19 1 4 3 -2 6 -13 5 -11 0 -14 -3 -6 -6z"/>
<path d="M27 103 c-25 -4 -27 -8 -27 -54 0 -48 1 -49 30 -49 30 0 30 1 30 55
0 30 -1 54 -2 54 -2 -1 -15 -4 -31 -6z"/>
</g>
</svg>
