<?xml version="1.0" encoding="utf-8"?>
<!-- Generator: Adobe Illustrator 27.0.0, SVG Export Plug-In . SVG Version: 6.00 Build 0)  -->
<svg version="1.1" xmlns="http://www.w3.org/2000/svg" xmlns:xlink="http://www.w3.org/1999/xlink" x="0px" y="0px"
	 viewBox="0 0 1080 1920" style="enable-background:new 0 0 1080 1920;" xml:space="preserve">
<style type="text/css">
	.st0{opacity:0.47;fill:#BFFFF1;}
	.st1{opacity:0.72;fill:#FF00FF;}
	.st2{opacity:0.74;fill:#F7931E;}
	.st3{opacity:0.74;fill:#55FFF3;}
	.st4{opacity:0.74;fill:#22B573;}
	.st5{fill:none;}
	.st6{font-family:'Bauhaus93';}
	.st7{font-size:100px;}
	.st8{fill:#FFDB3F;}
	.st9{fill:#FDFFF4;}
	.st10{opacity:0.64;fill:#FFDB3F;}
	.st11{fill:#FFBFFC;}
	.st12{fill:none;stroke:#000000;stroke-miterlimit:10;}
	.st13{fill:#FFFFFF;}
	.st14{stroke:#000000;stroke-width:5;stroke-miterlimit:10;}
	.st15{fill:#FF00FF;}
	.st16{fill:#FFFFFF;stroke:#FFFFFF;stroke-width:5;stroke-miterlimit:10;}
</style>
<g id="圖層_1">
	<path class="st0" d="M0,0v329.31c0.71,2.44,0.5,5.26,0,7.88v174.76c0.17,0.33,0.32,0.7,0.43,1.1c4.36,16.03,1.19,31.73-0.43,47.66
		V1920h1080V0H0z"/>
</g>
<g id="圖層_2">
	<path class="st1" d="M0,294L0,294c-0.87,0-1.74,0.02-2.6,0.03c0.63,1.28,0.68,2.84-0.25,4.45c-1.23,2.12-2.45,4.25-3.63,6.41
		c2.47,0.23,4.94,2.25,5,4.98c0.13,5.05-0.63,10.06-1.61,15.06c4.97,3.41,3.68,10.48,2.36,15.46c-0.51,1.91-1.07,3.81-1.66,5.7
		c2.85,7.61,2.46,18.04-1.12,25.6c3.28,8.67,3.62,18.58,3.46,27.63c-0.23,12.66-2.09,25.33-1.46,38.01
		c0.93,18.53,0.44,37,0.14,55.54c-0.09,5.78-0.08,11.55-0.28,17.32c0.94,0.56,1.7,1.5,2.08,2.87c5.59,20.54-1.19,40.55-1.23,61.19
		c0.05,0.67,0.07,1.34,0.02,2.05c-0.15,2.15-1.32,3.57-2.82,4.28c2.22,8.39,1.78,17.39-0.07,25.91c2.71,14.46,1.7,29.63,0.1,44.24
		c-0.07,0.68-0.31,1.32-0.65,1.92c1.2,2.89,2.05,5.88,2.3,9.23c0.8,10.69-0.8,21.39-0.95,32.08C-1.91,693.98-0.96,694,0,694h0
		c110.46,0,200-89.54,200-200v0C200,383.54,110.46,294,0,294z"/>
	<path class="st2" d="M1089,1441L1089,1441c-110.46,0-200-89.54-200-200v0c0-110.46,89.54-200,200-200h0c110.46,0,200,89.54,200,200
		v0C1289,1351.46,1199.46,1441,1089,1441z"/>
	<path class="st3" d="M0,2113L0,2113c-110.46,0-200-89.54-200-200v0c0-110.46,89.54-200,200-200h0c110.46,0,200,89.54,200,200v0
		C200,2023.46,110.46,2113,0,2113z"/>
	<path class="st4" d="M1305.61-29.9c36.93-43.11,53.68-62.68,58.06-67.79C1357.39-90.35,1327.83-55.85,1305.61-29.9L1305.61-29.9z"
		/>
	<path class="st4" d="M1080,200L1080,200c-2.74,0-5.45-0.07-8.16-0.18C1068.53,201.63,1071.76,200,1080,200z"/>
	<path class="st4" d="M880,0c0,107.72,85.17,195.54,191.84,199.82c5.42-2.96,28.41-15.17,75.62-58.97c0.23-5.25,0.52-10.5,0.75-15.7
		c0.91-20.53,1.99-41.05,2.43-61.6c0.37-17.24,0.49-34.61-1.26-51.79c-1.03-10.09-2.3-22.35-9.48-29.22
		c-8.24-7.89-20.2-11.27-31.09-13.47c-14.95-3.02-30.37-3.61-45.59-3.55c-35.88,0.15-71.7,4.51-107.2,9.37
		c-15.25,2.08-30.48,4.33-45.75,6.35c-9.79,1.3-19.73,2.79-29.64,2.86C880.22-10.65,880-5.35,880,0L880,0"/>
	<path class="st4" d="M1221.03,59.74c-15.82-20.25-30.84-41.2-48.17-60.23c-8.6-9.44-17.99-18.83-28.49-26.48
		c3.09,2.49,5.77,5.4,7.72,8.81c6.27,11.01,7.1,25.4,7.93,37.72c1.23,18.26,0.89,36.62,0.32,54.9c-0.58,18.69-1.59,37.37-2.38,56.06
		c-0.01,0.15-0.01,0.29-0.02,0.44c18.56-17.72,40.42-39.9,65.92-67.6C1222.92,62.16,1221.97,60.95,1221.03,59.74z"/>
	<path class="st4" d="M1299.09-22.29C1288-9.35,1280,0,1280,0c0-12.58-1.17-24.89-3.4-36.83c-7.59-4.56-15.35-8.85-23.31-12.75
		c-11.33-5.55-23.64-9.34-35.83-12.49c-24.39-6.3-49.45-9.39-74.42-12.35c-24.88-2.95-49.54-6.03-73.95-11.75
		c-25.22-5.91-50.18-12.96-74.81-21c-22.1-7.21-43.89-15.2-65.42-23.82c-25.1,28.94-42.01,65.16-47.18,105.06
		c11.4-0.18,22.86-2.03,34.12-3.58c18.47-2.53,36.91-5.25,55.41-7.62c36.07-4.63,72.73-8.71,109.16-7.01
		c14.8,0.69,30.01,2.24,44.14,6.98c4.61,1.55,9.48,3.54,13.97,6.14c-6.72-4.28-13.88-7.78-21.57-10.11
		c-6.15-1.86-3.51-11.51,2.66-9.64c12.64,3.83,23.99,10.53,34.35,18.62c31.11,24.27,52.2,57.76,76.58,88.27
		C1245.73,39.41,1262.2,20.78,1280,0C1286.85-8,1293.2-15.41,1299.09-22.29C1299.09-22.29,1299.09-22.29,1299.09-22.29z"/>
	<path class="st4" d="M1019.25-109.83c24.71,7.4,50,14.66,75.46,18.95c24.55,4.14,49.37,6.34,74.03,9.67
		c24.61,3.32,49.28,7.62,72.73,16.03c11.15,4,21.84,9.14,32.17,14.96C1251.36-136.37,1173.11-200,1080-200h0
		c-56.53,0-107.58,23.46-143.96,61.17C963.37-128.02,991.09-118.25,1019.25-109.83z"/>
</g>
<g id="圖層_3">
	<rect x="97" y="848.3" class="st5" width="915" height="243.7"/>
	<text transform="matrix(1 0 0 1 382.5273 931.6475)"><tspan x="0" y="0" class="st6 st7">Animals</tspan><tspan x="55.57" y="120" class="st6 st7">Plate</tspan></text>
</g>
<g id="圖層_4">
	<path class="st8" d="M82,942c2.67-9.33,5.33-18.67,8-28"/>
	<g>
		<g>
			<g>
				<g>
					<path class="st8" d="M534,744h12c-84.93,0-170-26.85-170-111.78v-32.45C376,514.85,444.85,446,529.78,446h32.45
						C647.15,446,716,514.85,716,599.78V632C716,716.93,618.93,744,534,744z"/>
					<path class="st9" d="M476,621L476,621c-27.61,0-50-16.39-50-44v-19c0-27.61,22.39-50,50-50h0c27.61,0,50,22.39,50,50v19
						C526,604.61,503.61,621,476,621z"/>
					<path class="st9" d="M631,620L631,620c-27.61,0-50-13.39-50-41v-19c0-27.61,22.39-50,50-50h0c27.61,0,50,22.39,50,50v19
						C681,606.61,658.61,620,631,620z"/>
					<path class="st10" d="M625.41,454.06C820,356,697.75,542,697.75,542"/>
					<path class="st11" d="M655,469c83-46,40.23,41,40.23,41"/>
					<path class="st10" d="M457.01,470.47c-194.59-98.06-72.34,87.94-72.34,87.94"/>
					<path class="st11" d="M427.02,486.47c-83-46-40.23,41-40.23,41"/>
					<ellipse transform="matrix(0.7068 -0.7074 0.7074 0.7068 -262.9543 503.551)" cx="476" cy="569" rx="41.03" ry="40.97"/>
					<ellipse transform="matrix(0.7068 -0.7074 0.7074 0.7068 -217.5096 613.1988)" cx="631" cy="569" rx="41.03" ry="40.97"/>
				</g>
				<path class="st12" d="M541.5,756.5"/>
				<path class="st12" d="M442.5,663.5"/>
				<g>
					<circle class="st13" cx="511.5" cy="650.5" r="41.5"/>
				</g>
				<g>
					<path class="st13" d="M595,607.5c1.1,22.66-19.16,41.5-41.5,41.5c-22.38,0-42.59-18.9-41.5-41.5
						c1.03-21.24,20.47-37.26,41-37.5C573.88,569.76,593.95,585.86,595,607.5z"/>
				</g>
				<circle class="st13" cx="587.5" cy="650.5" r="41.5"/>
				<circle class="st13" cx="553.5" cy="681.5" r="41.5"/>
				<line class="st14" x1="554" y1="635" x2="554" y2="663"/>
				<line class="st14" x1="554" y1="663" x2="531" y2="677"/>
				<line class="st14" x1="575.61" y1="677.27" x2="553.03" y2="662.6"/>
			</g>
			<polygon class="st15" points="566.61,611 540,610.84 553.44,634.12 			"/>
		</g>
		<path class="st16" d="M489.71,640.67c-78.21-11.17-251.86-38.3-250.04-30.24"/>
		<path class="st16" d="M489.67,639.73c-74.57,18.08-211.33,50.98-234.89,61.26"/>
		<path class="st16" d="M604.5,640.19c74.57,18.08,211.33,50.98,234.89,61.26"/>
		<path class="st16" d="M599.21,640.91c78.21-11.17,251.86-38.3,250.04-30.24"/>
	</g>
</g>
</svg>
